<svg fill="none" xmlns="http://www.w3.org/2000/svg" viewBox="0 0 1267 1267"><path d="M633.5 0c-18.368 0-36.736.7816-55.104 2.3449-1.172 0-2.345 0-3.517.3908-9.77.7816-19.15 2.3448-28.529 3.908-7.816 1.1725-15.632 1.5633-23.058 3.1265-2.735.3908-5.08 1.1724-7.816 1.5632-9.379 1.9541-18.759 3.9081-28.138 6.253-6.253 1.5632-12.897 2.7356-19.15 4.2989-3.908 1.1724-7.816 2.7356-11.724 3.908-8.598 2.3449-16.805 5.0805-25.012 7.8162-5.862 1.954-12.506 3.5173-17.977 5.8621l-49.633 18.368 3.908 1.5632C151.243 159.841 0 379.084 0 633.5c0 254.416 151.243 473.66 367.75 574.49l-3.908 1.56 49.633 18.37c5.862 1.95 12.115 3.91 17.977 5.86 8.207 2.74 16.414 5.47 25.012 7.82 3.908 1.17 7.816 2.73 11.724 3.91 6.253 1.56 12.897 2.73 19.15 4.29 9.379 2.35 18.759 4.3 28.529 6.26 2.345.39 5.08 1.17 7.425 1.56 7.426 1.17 14.851 1.95 22.276 2.74 9.77 1.56 19.541 3.12 29.702 3.9 1.172 0 1.954 0 3.126.4 17.977 1.56 36.345 2.34 55.104 2.34 349.383 0 633.5-284.117 633.5-633.5C1267 284.118 982.492 0 633.5 0Zm0 1227.92c-18.368 0-36.345-1.17-54.713-2.74-9.77-.78-19.15-2.34-28.529-3.9-8.989-1.18-17.977-2.35-26.966-4.3-9.379-1.57-18.368-3.91-27.356-5.87-6.253-1.56-12.506-3.12-18.759-4.69C696.42 1102.86 840.238 878.928 840.238 633.5c0-245.428-143.818-469.361-363.061-572.9247 6.253-1.5633 12.506-3.5173 19.149-5.0805 8.989-1.9541 17.978-4.2989 26.966-5.8622 9.38-1.5632 18.759-3.1264 28.138-4.2989 8.989-1.1724 17.977-2.7356 27.357-3.5172 17.977-1.5633 36.345-2.7357 54.713-2.7357 327.888 0 594.42 266.5312 594.42 594.4192 0 327.888-266.532 594.42-594.42 594.42Z" fill="url(#a)"/><defs><linearGradient id="a" x1="633.5" y1="-142.761" x2="633.5" y2="1267" gradientUnits="userSpaceOnUse"><stop stop-color="#EADCED"/><stop offset="1" stop-color="#FCFAF4" stop-opacity="0"/></linearGradient></defs></svg>