<svg xmlns="http://www.w3.org/2000/svg" fill="none" viewBox="0 0 642 642"><path fill="url(#a)" d="M321 0C144.062 0 0 144.062 0 321s144.062 321 321 321 321-144.062 321-321S497.938 0 321 0Zm0 619.169c-12.557 0-24.886-.913-36.986-2.511C401.592 567.115 480.587 451.363 480.587 321c0-130.363-78.995-246.115-196.573-295.658 12.1-1.598 24.429-2.511 36.986-2.511 164.381 0 298.169 133.788 298.169 298.169 0 164.381-133.788 298.169-298.169 298.169Z"/><defs><linearGradient id="a" x1="321" x2="321" y1="0" y2="642" gradientUnits="userSpaceOnUse"><stop offset=".128" stop-color="#fff" stop-opacity="0"/><stop offset=".498" stop-color="#F3B9A8" stop-opacity=".7"/><stop offset="1" stop-color="#C5D5EE" stop-opacity=".8"/></linearGradient></defs></svg>