<svg xmlns="http://www.w3.org/2000/svg" fill="none" viewBox="0 0 642 642"><path fill="url(#a)" d="M321 0C143.964 0 0 143.964 0 321s143.964 321 321 321 321-143.964 321-321S498.036 0 321 0Zm0 622.545C154.664 622.545 19.454 487.336 19.454 321S154.665 19.454 321 19.454c166.336 0 301.545 135.21 301.545 301.546 0 166.336-135.209 301.545-301.545 301.545Z"/><path fill="url(#b)" d="M318.081 288.707c-17.899 0-32.295 14.591-32.295 32.295 0 17.703 14.591 32.294 32.295 32.294 17.703 0 32.294-14.591 32.294-32.294 0-17.704-14.591-32.295-32.294-32.295Z"/><defs><linearGradient id="a" x1="321" x2="321" y1="17" y2="659" gradientUnits="userSpaceOnUse"><stop offset=".075" stop-color="#DDDBE9"/><stop offset=".548" stop-color="#F5F4ED" stop-opacity=".37"/><stop offset="1" stop-color="#fff" stop-opacity="0"/></linearGradient><linearGradient id="b" x1="321" x2="321" y1="17" y2="659" gradientUnits="userSpaceOnUse"><stop offset=".075" stop-color="#DDDBE9"/><stop offset=".548" stop-color="#F5F4ED" stop-opacity=".37"/><stop offset="1" stop-color="#fff" stop-opacity="0"/></linearGradient></defs></svg>