<svg fill="none" xmlns="http://www.w3.org/2000/svg" viewBox="0 0 799 799"><path d="M399.5 0c-11.583 0-23.167.493-34.75 1.4787-.739 0-1.479 0-2.218.2465-6.161.4929-12.076 1.4787-17.991 2.4645-4.929.7394-9.858.9858-14.541 1.9716-1.725.2465-3.204.7394-4.929.9858-5.915 1.2323-11.829 2.4646-17.744 3.9433-3.944.9858-8.133 1.7251-12.077 2.711-2.464.7393-4.929 1.7251-7.393 2.4645-5.422 1.4787-10.598 3.2039-15.773 4.929-3.697 1.2323-7.887 2.2181-11.337 3.6968L229.448 36.475l2.464.9858C95.3772 100.799 0 239.059 0 399.5s95.3772 298.701 231.912 362.286l-2.464.986 31.299 11.583c3.697 1.232 7.64 2.464 11.337 3.696 5.175 1.726 10.351 3.451 15.773 4.93 2.464.739 4.929 1.725 7.393 2.464 3.944.986 8.133 1.725 12.077 2.711 5.915 1.479 11.829 2.711 17.991 3.943 1.478.247 3.204.74 4.682.986 4.683.74 9.366 1.232 14.048 1.725 6.161.986 12.323 1.972 18.731 2.465.739 0 1.232 0 1.971.246 11.337.986 22.92 1.479 34.75 1.479C619.829 799 799 619.829 799 399.5S619.582 0 399.5 0Zm0 774.355c-11.583 0-22.92-.74-34.503-1.725-6.162-.493-12.077-1.479-17.991-2.465-5.669-.739-11.337-1.479-17.006-2.711-5.915-.986-11.583-2.464-17.251-3.697-3.944-.986-7.887-1.971-11.83-2.957 138.26-65.31 228.955-206.528 228.955-361.3 0-154.772-90.695-295.99-228.955-361.2998 3.943-.9858 7.886-2.2181 12.076-3.2039 5.668-1.2323 11.337-2.711 17.005-3.6968 5.915-.9858 11.83-1.9716 17.745-2.711 5.668-.7393 11.337-1.7251 17.252-2.218 11.336-.9859 22.92-1.7252 34.503-1.7252 206.774 0 374.855 168.0807 374.855 374.8547 0 206.774-168.081 374.855-374.855 374.855Z" fill="url(#a)"/><defs><linearGradient id="a" x1="399.5" y1="0" x2="399.5" y2="799" gradientUnits="userSpaceOnUse"><stop stop-color="#CBCEE3" stop-opacity="0"/><stop offset="1" stop-color="#CBCEE3"/></linearGradient></defs></svg>