<svg fill="none" xmlns="http://www.w3.org/2000/svg" viewBox="0 0 1402 1402"><path d="M701 0C314.602 0 0 314.602 0 701c0 386.4 314.602 701 701 701 386.4 0 701-314.6 701-701 0-386.398-314.6-701-701-701Zm0 1352.14c-27.422 0-54.345-1.99-80.77-5.48 256.768-108.19 429.28-360.972 429.28-645.66S876.998 163.533 620.23 55.3421c26.425-3.49 53.348-5.4844 80.77-5.4844 358.98 0 651.14 292.1663 651.14 651.1423 0 358.98-292.16 651.14-651.14 651.14Z" fill="url(#a)"/><defs><linearGradient id="a" x1="701" y1="0" x2="701" y2="1402" gradientUnits="userSpaceOnUse"><stop stop-color="#C5D5EE"/><stop offset=".5" stop-color="#D2DEF2" stop-opacity=".7741"/><stop offset="1" stop-color="#fff" stop-opacity="0"/></linearGradient></defs></svg>