<svg viewBox="0 0 60 60" fill="none" xmlns="http://www.w3.org/2000/svg"><path d="M29.982 0c-.926 0-1.851.056-2.758.148-.463.037-.907.111-1.351.185-1.832.26-3.609.666-5.312 1.222C8.624 5.515 0 16.767 0 30s8.643 24.485 20.561 28.445c1.703.574 3.461.963 5.275 1.222.463.074.925.148 1.406.185.907.074 1.833.148 2.758.148 16.545 0 30-13.455 30-30S46.527 0 29.982 0zM1.832 30c0-13.806 9.994-25.3 23.134-27.668A28.07 28.07 0 0 1 48.026 30c0 13.621-9.698 25.244-23.06 27.668C11.844 55.281 1.851 43.806 1.851 30h-.019zm56.003 3.831c-.093.61-.148 1.221-.278 1.814-.074.37-.185.721-.278 1.073-.13.537-.259 1.092-.407 1.61-.11.37-.259.703-.388 1.074-.186.5-.352 1.017-.556 1.517-.148.352-.333.685-.5 1.037-.221.48-.425.962-.684 1.425-.185.351-.407.684-.61 1.017-.26.426-.5.87-.797 1.296-.222.333-.48.648-.721.962-.297.407-.574.815-.889 1.203-.259.315-.536.593-.795.889-.334.37-.648.759-1 1.11-.278.278-.592.537-.888.814-.37.334-.722.685-1.092 1-.315.259-.648.5-.981.74-.389.296-.759.61-1.166.87-.352.24-.722.444-1.073.666-.407.26-.815.518-1.24.759-.37.204-.76.37-1.148.555-.425.204-.851.444-1.295.63-.389.166-.815.295-1.222.462-.444.167-.888.352-1.35.5-.426.13-.852.222-1.296.351-.463.13-.926.26-1.388.352-.444.093-.889.148-1.351.222-.481.074-.944.167-1.425.222-.463.056-.926.056-1.388.093-.445.018-.87.074-1.314.074h.037a29.914 29.914 0 0 0 19.562-28.131 29.914 29.914 0 0 0-19.562-28.13h-.037c.444 0 .87.055 1.314.073.462.019.943.037 1.388.093.48.055.962.148 1.425.222.444.074.907.13 1.35.222.482.093.926.24 1.389.352.425.11.87.203 1.277.351.462.148.907.333 1.35.5.408.148.815.296 1.222.463.444.185.87.407 1.296.629.388.185.777.351 1.147.555.426.222.814.5 1.222.74.37.222.74.426 1.073.667.407.277.777.573 1.148.87.333.259.684.48.999.758.37.315.722.648 1.092.981.296.278.61.537.907.833.351.352.666.722.999 1.092.278.296.555.592.814.907.315.37.593.777.889 1.184.24.333.5.648.74.981.277.407.518.851.777 1.277.204.352.426.685.63 1.036.24.445.444.926.666 1.388.166.352.351.704.5 1.055.203.482.37 1 .555 1.5.13.37.277.721.388 1.091.167.537.278 1.074.426 1.629.093.352.203.703.277 1.055.13.63.204 1.277.297 1.925.037.296.092.573.13.85.092.945.147 1.907.147 2.87 0 .962-.055 1.924-.148 2.868-.037.333-.11.648-.148.962l-.018-.055z" fill="currentColor"/></svg>